Coordinates
version=1
nRows=7
nColumns=40
inDegrees=yes

Units are S.I. units (second, meters, Newtons, ...)
If the header above contains a line with 'inDegrees', this indicates whether rotational values are in degrees (yes) or radians (no).

endheader
time	pelvis_tilt	pelvis_list	pelvis_rotation	pelvis_tx	pelvis_ty	pelvis_tz	hip_flexion_r	hip_adduction_r	hip_rotation_r	knee_angle_r	knee_angle_r_beta	ankle_angle_r	subtalar_angle_r	mtp_angle_r	hip_flexion_l	hip_adduction_l	hip_rotation_l	knee_angle_l	knee_angle_l_beta	ankle_angle_l	subtalar_angle_l	mtp_angle_l	lumbar_extension	lumbar_bending	lumbar_rotation	arm_flex_r	arm_add_r	arm_rot_r	elbow_flex_r	pro_sup_r	wrist_flex_r	wrist_dev_r	arm_flex_l	arm_add_l	arm_rot_l	elbow_flex_l	pro_sup_l	wrist_flex_l	wrist_dev_l
      8.32500000	      7.97122396	     -1.22478906	   -164.76157697	      0.34783988	      0.78877819	     -0.58970296	     51.82958508	    -22.14203394	     -9.42584106	     61.46179714	      1.07271072	     20.05070576	      0.00000000	      0.00000000	     55.46225694	      1.82187419	      1.95161777	     60.41866724	      1.05450467	     14.49643407	      0.00000000	      0.00000000	    -58.03594761	     12.57656563	    -11.35136486	      0.00000000	     -9.41563016	      0.00000000	     73.85823634	     48.19170187	      0.00000000	      0.00000000	      0.00000000	     -9.41563016	      0.00000000	     73.85823634	     48.19170187	      0.00000000	      0.00000000
      8.33000000	      7.76982515	     -1.25936135	   -164.61315211	      0.34803741	      0.79032329	     -0.58956994	     51.32539605	    -22.29069295	     -9.80190446	     61.12798978	      1.06688469	     19.92056213	      0.00000000	      0.00000000	     55.01958506	      1.93372116	      2.04269677	     60.00604193	      1.04730300	     14.41510444	      0.00000000	      0.00000000	    -58.19632148	     12.66601421	    -11.46241888	      0.00000000	     -9.44451081	      0.00000000	     73.86921159	     48.11857792	      0.00000000	      0.00000000	      0.00000000	     -9.44451081	      0.00000000	     73.86921159	     48.11857792	      0.00000000	      0.00000000
      8.33500000	      7.90045054	     -1.19642059	   -164.56557566	      0.34828885	      0.79111536	     -0.58983177	     51.31560274	    -22.24198916	     -9.91533540	     60.84541281	      1.06195279	     19.77623281	      0.00000000	      0.00000000	     55.03917736	      1.93148582	      2.08901146	     59.71548893	      1.04223190	     14.21199061	      0.00000000	      0.00000000	    -57.97066402	     12.67225835	    -11.43276165	      0.00000000	     -9.46507562	      0.00000000	     73.87683551	     48.07178197	      0.00000000	      0.00000000	      0.00000000	     -9.46507562	      0.00000000	     73.87683551	     48.07178197	      0.00000000	      0.00000000
      8.34000000	      7.78368642	     -1.15186814	   -164.43561304	      0.34861828	      0.79236232	     -0.58952139	     50.95558829	    -22.31562243	    -10.24045966	     60.53263835	      1.05649384	     19.60308378	      0.00000000	      0.00000000	     54.76680251	      2.02065607	      2.24440511	     59.39036507	      1.03655741	     14.09768592	      0.00000000	      0.00000000	    -58.01614131	     12.80859376	    -11.42868514	      0.00000000	     -9.50544215	      0.00000000	     73.89227776	     47.96674807	      0.00000000	      0.00000000	      0.00000000	     -9.50544215	      0.00000000	     73.89227776	     47.96674807	      0.00000000	      0.00000000
      8.34500000	      7.88650104	     -1.04314792	   -164.43421656	      0.34902480	      0.79275295	     -0.58955716	     51.06587488	    -22.24995630	    -10.30801825	     60.47102150	      1.05541843	     19.33062877	      0.00000000	      0.00000000	     54.93647587	      1.95679752	      2.27398441	     59.38042880	      1.03638399	     13.87972533	      0.00000000	      0.00000000	    -57.84068893	     12.83516199	    -11.35009707	      0.00000000	     -9.53653646	      0.00000000	     73.90397523	     47.89153559	      0.00000000	      0.00000000	      0.00000000	     -9.53653646	      0.00000000	     73.90397523	     47.89153559	      0.00000000	      0.00000000
      8.35000000	      8.02963139	     -0.96167086	   -164.47913326	      0.34919500	      0.79361705	     -0.58977890	     51.05901912	    -22.13260459	    -10.41543844	     60.12564081	      1.04939040	     19.21044625	      0.00000000	      0.00000000	     54.95599151	      1.87634449	      2.28091864	     59.09703300	      1.03143780	     13.73365211	      0.00000000	      0.00000000	    -57.61068117	     12.71454837	    -11.29320585	      0.00000000	     -9.55578093	      0.00000000	     73.91091123	     47.85324241	      0.00000000	      0.00000000	      0.00000000	     -9.55578093	      0.00000000	     73.91091123	     47.85324241	      0.00000000	      0.00000000
      8.35500000	      7.82271668	     -1.07674527	   -164.43925673	      0.34948183	      0.79562282	     -0.58983487	     50.50399630	    -22.15864466	    -10.57568944	     59.57937851	      1.03985632	     19.04391893	      0.00000000	      0.00000000	     54.32666582	      1.96959278	      2.30180653	     58.39737035	      1.01922639	     13.64440513	      0.00000000	      0.00000000	    -57.78366977	     12.71580683	    -11.20884689	      0.00000000	     -9.58387413	      0.00000000	     73.92128053	     47.79030224	      0.00000000	      0.00000000	      0.00000000	     -9.58387413	      0.00000000	     73.92128053	     47.79030224	      0.00000000	      0.00000000
